<svg enable-background="new 0 0 24 24" viewBox="0 0 24 24" xmlns="http://www.w3.org/2000/svg"><g fill="none" stroke="#242748" stroke-linecap="round" stroke-linejoin="round" stroke-width="2"><path d="m14.9 1v5.9h5.9"/><path d="m20.8 9.8v-2.9l-5.9-5.9h-11.7v8.8"/><path d="m3.2 20.1v2.9h17.6v-2.9"/></g><g fill="#242748"><path d="m8.7 13.8c-.3 0-.5.1-.7.4s-.2.5-.2.9c0 .8.3 1.2 1 1.2.2 0 .4 0 .5-.1s.4-.2.5-.2v1c-.4.1-.7.2-1.2.2-.7 0-1.1-.1-1.5-.6-.4-.4-.5-.9-.5-1.6 0-.4.1-.8.2-1.2.2-.4.4-.6.8-.8s.7-.3 1.1-.3.9.1 1.3.3l-.4.9c-.1-.1-.3-.1-.4-.1s-.4 0-.5 0z"/><path d="m13.4 15.9c0 .3-.1.5-.2.7-.1.1-.3.4-.6.4-.3.1-.5.1-.9.1-.3 0-.5 0-.7-.1s-.4-.1-.6-.2v-1c.2.1.4.2.7.3.2.1.4.1.7.1.1 0 .3 0 .4-.1s.1-.1.1-.2 0-.1-.1-.1c-.1-.1-.1 0-.1-.1-.1-.1-.2-.1-.6-.3-.3-.1-.5-.2-.6-.4-.1-.1-.2-.2-.3-.4-.1-.1-.1-.3-.1-.5 0-.4.1-.7.4-.9s.7-.3 1.2-.3c.4 0 .9.1 1.3.3l-.4.9c-.4-.1-.7-.3-1-.3-.1 0-.2 0-.3.1s-.1.1-.1.2.1.1.1.2c.1.1.3.1.7.4.4.1.6.4.7.5s.3.4.3.7z"/><path d="m16.4 13h1.2l-1.4 4.2h-1.3l-1.4-4.2h1.2l.6 2.1c.1.4.1.8.2 1 0-.1.1-.3.1-.5s.1-.4.1-.4z"/></g><path d="m1 9.8h22v10.3h-22z" fill="none" stroke="#242748" stroke-linecap="round" stroke-linejoin="round" stroke-width="2"/></svg>