<svg enable-background="new 0 0 24 24" viewBox="0 0 24 24" xmlns="http://www.w3.org/2000/svg"><g fill="none" stroke="#242748" stroke-linecap="round" stroke-linejoin="round" stroke-width="2"><path d="m14.9 1v5.9h5.9"/><path d="m20.8 9.8v-2.9l-5.9-5.9h-11.7v8.8"/><path d="m3.2 20.1v2.9h17.6v-2.9"/><path d="m1 9.8h22v10.3h-22z"/></g><g fill="#242748"><path d="m4.8 18.4c-.2 0-.4 0-.6-.1v-.9h.2.2c.2 0 .3 0 .4-.2s.1-.4.1-.6v-3.9h1.1v3.8c0 .5-.1.9-.4 1.3-.1.5-.5.7-1 .6z"/><path d="m10 15.9c0 .2-.1.5-.2.7s-.3.4-.6.5-.6.2-.9.2c-.2 0-.5 0-.7-.1-.2 0-.4-.1-.6-.2v-1c.2.1.4.2.7.3.2.1.4.1.6.1.1 0 .3 0 .4-.1.1-.2.1-.3.1-.3 0-.1 0-.1 0-.1 0-.1-.1-.1-.2-.1s-.3-.1-.6-.3c-.2-.1-.4-.2-.6-.4-.1-.1-.2-.2-.3-.4s-.1-.4-.1-.5c0-.4.1-.7.4-.9s.7-.3 1.2-.3.9.1 1.3.3l-.3.9c-.3-.2-.7-.3-1-.3-.1 0-.2 0-.3.1-.1 0-.1.1-.1.2s.1.2.1.2c.2.1.5.3.7.4.3.1.5.3.8.5.1.1.2.3.2.6z"/><path d="m14.5 15c0 .6-.1 1.2-.5 1.6s-1 .6-1.5.5c-.6 0-1.1-.2-1.5-.6s-.6-1-.5-1.6c0-.6.1-1.2.5-1.6s1-.6 1.5-.5c.6 0 1.1.2 1.5.5.4.6.6 1.2.5 1.7zm-2.8 0c0 .8.3 1.2.8 1.2.2 0 .5-.1.6-.3.2-.3.2-.6.2-.9s0-.6-.2-.9c-.1-.2-.4-.3-.6-.3-.6 0-.8.4-.8 1.2z"/><path d="m19.3 17.1h-1.5l-1.5-3c0 .5.1.8.1 1.1v1.9h-1v-4.2h1.5l1.5 2.9c0-.4 0-.8 0-1v-1.9h1z"/></g></svg>