<svg enable-background="new 0 0 24 24" viewBox="0 0 24 24" xmlns="http://www.w3.org/2000/svg"><g fill="none" stroke="#242748" stroke-linecap="round" stroke-linejoin="round" stroke-width="2"><path d="m14.9 1v5.9h5.9"/><path d="m20.8 9.8v-2.9l-5.9-5.9h-11.7v8.8"/><path d="m3.2 20.1v2.9h17.6v-2.9"/></g><g fill="#242748"><path d="m9.9 14.3c0 .5-.1.8-.4 1.1s-.7.4-1.2.4h-.3v1.4h-1.1v-4.2h1.4c.5 0 .9.1 1.2.3s.4.6.4 1zm-1.9.5h.2c.2 0 .3 0 .4-.1s.2-.2.2-.4c0-.3-.2-.4-.5-.4h-.3z"/><path d="m14.1 15c0 .7-.2 1.2-.6 1.6s-.9.6-1.6.6h-1.4v-4.2h1.5c.7 0 1.2.2 1.6.5s.5.8.5 1.5zm-1.1 0c0-.4-.1-.7-.2-.9s-.4-.3-.7-.3h-.3v2.3h.2c.3 0 .6-.1.8-.3s.2-.4.2-.8z"/><path d="m16 17.1h-1.1v-4.2h2.5v1h-1.4v.8h1.2v.9h-1.2z"/></g><path d="m1 9.8h22v10.3h-22z" fill="none" stroke="#242748" stroke-linecap="round" stroke-linejoin="round" stroke-width="2"/></svg>