<svg enable-background="new 0 0 24 24" viewBox="0 0 24 24" xmlns="http://www.w3.org/2000/svg"><g fill="none" stroke="#242748" stroke-linecap="round" stroke-linejoin="round" stroke-width="2"><path d="m14.9 1v5.9h5.9"/><path d="m20.8 9.8v-2.9l-5.9-5.9h-11.7v8.8"/><path d="m3.2 20.1v2.9h17.6v-2.9"/><path d="m1 9.8h22v10.3h-22z"/></g><path d="m8.5 17.2h-1.3l-.8-1.3-.9 1.3h-1.3l1.4-2.2-1.4-2.1h1.3l.8 1.3.8-1.3h1.3l-1.3 2.2z" fill="#242748"/><path d="m9 17.2v-4.3h1.1v3.4h1.6v.9z" fill="#242748"/><path d="m15.3 15.9c0 .3-.1.5-.2.7-.1.1-.3.4-.6.5s-.5.1-.9.1c-.3 0-.5 0-.8-.1-.2-.1-.4-.1-.6-.2v-1c.2.2.5.2.7.3s.4.1.7.1c.2 0 .3 0 .4-.1s.2-.2.2-.2c0-.1 0-.1-.1-.2s-.1-.1-.2-.2-.2-.2-.6-.3c-.3-.2-.5-.2-.6-.4s-.2-.2-.3-.4-.1-.3-.1-.5c0-.4.2-.7.4-.9.3-.2.7-.3 1.2-.3.4 0 .9.1 1.3.3l-.3.9c-.4-.2-.8-.3-1.1-.3-.2 0-.2 0-.3.1s-.1.2-.1.2c0 .1.1.2.2.2.1.1.3.2.7.4s.6.4.8.5.2.5.2.8z" fill="#242748"/><path d="m19.8 17.2h-1.4l-.8-1.3-.8 1.3h-1.3l1.4-2.2-1.3-2.1h1.3l.8 1.3.8-1.3h1.4l-1.4 2.2z" fill="#242748"/></svg>