<?xml version="1.0" encoding="UTF-8" standalone="no"?>
<!DOCTYPE svg PUBLIC "-//W3C//DTD SVG 1.1//EN" "http://www.w3.org/Graphics/SVG/1.1/DTD/svg11.dtd">
<svg width="100%" height="100%" viewBox="0 0 3181 1755" version="1.1" xmlns="http://www.w3.org/2000/svg" xmlns:xlink="http://www.w3.org/1999/xlink" xml:space="preserve" xmlns:serif="http://www.serif.com/" style="fill-rule:evenodd;clip-rule:evenodd;stroke-linejoin:round;stroke-miterlimit:2;">
    <g transform="matrix(1,0,0,1,-10825,-1906)">
        <g id="Plan-de-travail3" serif:id="Plan de travail3" transform="matrix(1,0,0,1,3404,1906.63)">
            <rect x="7421" y="0" width="3181" height="1753.87" style="fill:none;"/>
            <g transform="matrix(1,0,0,1,3532.73,-1623.64)">
                <g transform="matrix(1,0,0,1,3716.21,1359.82)">
                    <path d="M1769.46,1663.05C1723.52,1663.05 1690.28,1688.87 1690.28,1728C1690.28,1765.74 1713.01,1783.68 1764.2,1794.05C1794.67,1800.23 1812.47,1805.49 1812.47,1820.81C1812.47,1836.59 1797.77,1845.87 1774.41,1845.87C1749.04,1845.87 1734.5,1838.75 1722.13,1829.93C1715.33,1825.14 1711.15,1823.9 1706.2,1823.9C1694.61,1823.9 1685.18,1833.34 1685.18,1844.94C1685.18,1852.36 1688.73,1858.39 1696,1863.64C1711.15,1875.24 1735.42,1887.45 1771.31,1887.45C1824.52,1887.45 1856.06,1858.85 1856.06,1820.5C1856.06,1782.91 1831.48,1764.04 1776.73,1753.83C1745.32,1748.11 1733.88,1742.07 1733.88,1728C1733.88,1715.78 1743.93,1704.17 1769.15,1704.17C1786.78,1704.17 1799.62,1708.51 1808.44,1713.3C1813.55,1715.93 1817.88,1718.1 1823.44,1718.1C1834.88,1718.1 1844.16,1708.82 1844.16,1697.06C1844.16,1691.19 1841.99,1685.47 1837.05,1681.14C1824.36,1670.48 1799.15,1663.05 1769.46,1663.05ZM1987.59,1663.05C1935,1663.05 1898.78,1701.7 1894.76,1751.35C1893.37,1766.98 1893.37,1783.22 1894.76,1799.77C1898.78,1849.11 1935,1887.45 1987.74,1887.45C2022.23,1887.45 2055.48,1870.45 2068.78,1839.06C2070.8,1834.11 2071.11,1831.17 2071.11,1827.3C2071.11,1815.55 2059.66,1807.04 2049.92,1807.04C2039.55,1807.04 2034.91,1812.45 2030.74,1819.57C2022.39,1836.28 2006.46,1846.33 1987.59,1846.33C1958.05,1846.33 1940.11,1825.45 1937.94,1795.13C1937.01,1782.44 1937.01,1769.45 1937.94,1756.77C1940.11,1726.76 1958.05,1704.33 1987.59,1704.33C2006.46,1704.33 2022.39,1714.38 2030.74,1731.09C2034.76,1737.28 2039.55,1743.62 2049.92,1743.62C2060.43,1743.62 2071.11,1734.65 2071.11,1723.36C2071.11,1719.49 2070.8,1716.55 2068.78,1711.6C2055.48,1680.21 2022.23,1663.05 1987.59,1663.05ZM2753.01,1663.05C2700.43,1663.05 2664.21,1701.7 2660.19,1751.35C2658.8,1766.98 2658.8,1783.22 2660.19,1799.77C2664.21,1849.11 2700.43,1887.45 2753.17,1887.45C2787.66,1887.45 2820.91,1870.45 2834.21,1839.06C2836.22,1834.11 2836.53,1831.17 2836.53,1827.3C2836.53,1815.55 2825.09,1807.04 2815.34,1807.04C2804.98,1807.04 2800.34,1812.45 2796.16,1819.57C2787.81,1836.28 2771.88,1846.33 2753.01,1846.33C2723.47,1846.33 2705.53,1825.45 2703.37,1795.13C2702.44,1782.44 2702.44,1769.45 2703.37,1756.77C2705.53,1726.76 2723.47,1704.33 2753.01,1704.33C2771.88,1704.33 2787.81,1714.38 2796.16,1731.09C2800.19,1737.28 2804.98,1743.62 2815.34,1743.62C2825.86,1743.62 2836.53,1734.65 2836.53,1723.36C2836.53,1719.49 2836.22,1716.55 2834.21,1711.6C2820.91,1680.21 2787.66,1663.05 2753.01,1663.05ZM721.342,1664.6C710.98,1664.6 701.701,1672.18 700,1682.54L672.008,1840.9C671.699,1842.14 669.997,1842.14 669.688,1840.9L638.449,1697.23C633.964,1674.81 618.963,1664.6 603.343,1664.6C587.723,1664.6 572.567,1674.19 568.082,1697.08L537.307,1841.06C536.997,1842.14 535.296,1842.14 535.142,1841.06L507.459,1682.54C505.913,1672.18 496.633,1664.6 486.117,1664.6C474.054,1664.6 464.311,1674.19 464.311,1686.25C464.311,1688.42 464.775,1691.05 465.549,1694.6L500.345,1856.52C504.366,1875.54 518.749,1886.06 534.523,1886.06C551.535,1886.06 564.68,1876.01 568.856,1857.14L602.106,1715.17C602.415,1714.09 603.807,1714.09 604.116,1715.17L636.438,1857.14C640.459,1875.85 653.914,1886.06 670.771,1886.06C686.7,1886.06 700.618,1875.54 704.949,1856.52L742.065,1694.6C742.838,1691.05 743.149,1688.42 743.149,1686.25C743.149,1674.19 733.559,1664.6 721.342,1664.6ZM2139.1,1664.6C2127.66,1664.6 2117.46,1674.5 2117.46,1686.72L2117.46,1863.63C2117.46,1876.16 2127.35,1886.06 2139.1,1886.06C2151.47,1886.06 2160.75,1876.16 2160.75,1863.63L2160.75,1686.72C2160.75,1674.5 2151.47,1664.6 2139.1,1664.6ZM1469,1665.99L1405.58,1665.99C1386.41,1665.99 1376.98,1678.98 1376.98,1693.82L1376.98,1863.63C1376.98,1875.7 1386.56,1886.06 1398.62,1886.06C1410.99,1886.06 1420.57,1875.7 1420.57,1863.63L1420.57,1808.88L1446.1,1808.88C1454.76,1808.88 1458.48,1812.59 1463.42,1818.78L1510.29,1877.24C1516.01,1884.36 1522.2,1886.06 1527.92,1886.06C1539.98,1886.06 1549.87,1876.32 1549.87,1864.25C1549.87,1856.83 1546.62,1852.03 1543.99,1848.94L1500.86,1798.68C1524.52,1792.03 1543.99,1772.55 1543.99,1737.28C1543.99,1693.97 1513.08,1665.99 1469,1665.99ZM1116.04,1665.99L975.163,1665.99C962.79,1665.99 953.046,1675.27 953.046,1687.48C953.046,1698.92 962.79,1708.82 975.163,1708.82L1024.04,1708.82L1024.04,1864.1C1024.04,1875.85 1034.09,1886.06 1045.84,1886.06C1058.2,1886.06 1067.32,1876.32 1067.32,1864.1L1067.32,1708.82L1116.04,1708.82C1127.8,1708.82 1138,1698.92 1138,1687.48C1138,1675.27 1128.41,1665.99 1116.04,1665.99ZM2453.68,1664.6C2433.74,1664.6 2420.6,1681 2420.6,1700.17L2420.6,1863.79C2420.6,1875.85 2430.03,1886.06 2442.24,1886.06C2454.92,1886.06 2463.42,1876.01 2463.42,1863.79L2463.42,1809.66C2463.42,1783.99 2463.42,1750.74 2460.48,1718.73L2461.41,1718.42L2544.02,1864.87C2551.44,1878.48 2560.26,1886.06 2576.65,1886.06C2598.29,1886.06 2609.73,1868.74 2609.73,1851.73L2609.73,1686.72C2609.73,1674.19 2600.46,1664.6 2588.09,1664.6C2576.34,1664.6 2566.45,1674.19 2566.45,1686.72L2566.45,1727.08C2566.45,1754.3 2566.29,1797.14 2569.23,1830.38L2568.3,1830.38L2485.54,1683.78C2477.81,1669.4 2466.36,1664.6 2453.68,1664.6ZM956.121,1855.59L898.283,1695.22C891.169,1675.43 876.477,1664.6 856.837,1664.6C837.351,1664.6 822.814,1675.43 815.546,1695.22L757.088,1855.59C756.16,1858.37 755.232,1861.31 755.232,1864.56C755.232,1876.47 764.821,1886.06 776.729,1886.06C785.389,1886.06 793.895,1880.8 796.833,1872.14L813.844,1823.58L899.674,1823.58L916.377,1872.14C919.16,1880.8 927.821,1886.06 936.481,1886.06C948.389,1886.06 957.976,1876.47 957.976,1864.56C957.976,1861.31 957.049,1858.37 956.121,1855.59ZM1307.82,1665.99L1205.75,1665.99C1185.5,1665.99 1174.68,1679.91 1174.68,1696.76L1174.68,1853.9C1174.68,1870.6 1185.5,1884.51 1205.75,1884.51L1308.44,1884.51C1320.04,1884.51 1329.17,1875.55 1329.17,1864.42C1329.17,1853.13 1320.04,1844.16 1308.44,1844.16L1217.96,1844.16L1217.96,1793.73L1299.01,1793.73C1309.84,1793.73 1318.19,1785.22 1318.19,1774.87C1318.19,1764.51 1309.84,1756.01 1299.01,1756.01L1217.96,1756.01L1217.96,1706.34L1307.82,1706.34C1319.42,1706.34 1328.55,1697.37 1328.55,1686.24C1328.55,1675.11 1319.42,1665.99 1307.82,1665.99ZM2351.45,1665.99L2249.37,1665.99C2229.12,1665.99 2218.3,1679.91 2218.3,1696.76L2218.3,1853.9C2218.3,1870.6 2229.12,1884.51 2249.37,1884.51L2352.06,1884.51C2363.66,1884.51 2372.79,1875.55 2372.79,1864.42C2372.79,1853.13 2363.66,1844.16 2352.06,1844.16L2261.59,1844.16L2261.59,1793.73L2342.63,1793.73C2353.46,1793.73 2361.81,1785.22 2361.81,1774.87C2361.81,1764.51 2353.46,1756.01 2342.63,1756.01L2261.59,1756.01L2261.59,1706.34L2351.45,1706.34C2363.05,1706.34 2372.17,1697.37 2372.17,1686.24C2372.17,1675.11 2363.05,1665.99 2351.45,1665.99ZM3016.03,1665.99L2913.96,1665.99C2893.71,1665.99 2882.89,1679.91 2882.89,1696.76L2882.89,1853.9C2882.89,1870.6 2893.71,1884.51 2913.96,1884.51L3016.65,1884.51C3028.25,1884.51 3037.38,1875.55 3037.38,1864.42C3037.38,1853.13 3028.25,1844.16 3016.65,1844.16L2926.17,1844.16L2926.17,1793.73L3007.22,1793.73C3018.04,1793.73 3026.39,1785.22 3026.39,1774.87C3026.39,1764.51 3018.04,1756.01 3007.22,1756.01L2926.17,1756.01L2926.17,1706.34L3016.03,1706.34C3027.63,1706.34 3036.76,1697.37 3036.76,1686.24C3036.76,1675.11 3027.63,1665.99 3016.03,1665.99ZM826.835,1786.32L852.352,1713.01C853.434,1710.07 854.672,1708.99 856.837,1708.99C859.002,1708.99 860.548,1710.23 861.631,1712.86L886.839,1786.32L826.835,1786.32ZM1465.9,1705.72C1489.41,1705.72 1500.4,1718.56 1500.4,1738.06C1500.4,1756.62 1490.96,1769.46 1463.58,1769.46L1420.57,1769.46L1420.57,1705.72L1465.9,1705.72Z" style="fill:rgb(10,42,118);fill-rule:nonzero;"/>
                </g>
                <g transform="matrix(0.613272,0,-0.148802,0.613272,-8519.09,-939.401)">
                    <path d="M24446.7,5224.31C24417.6,5189.76 24306,5039.05 24274.4,4993.64C24112.8,4761.08 23935.2,4507.1 23935.2,4507.1C23873.9,4434.39 23773.7,4407.72 23684.4,4440.33C23595.1,4472.95 23535.7,4557.9 23535.7,4652.98L23535.7,6070.65C23535.7,6070.65 23838.6,6070.65 23948.9,6070.65C23970.7,6070.65 23988.4,6052.95 23988.4,6031.11L23988.4,5272.93C24017.6,5307.48 24500,5990.14 24500,5990.14C24561.3,6062.85 24661.4,6089.52 24750.8,6056.91C24840.1,6024.29 24899.5,5939.34 24899.5,5844.26L24899.5,4392.83C24899.5,4392.83 24604.5,4392.83 24490.8,4392.83C24466.4,4392.83 24446.7,4412.55 24446.7,4436.86L24446.7,5224.31ZM23297.7,4922.55C23318.8,4932.84 23341.3,4933.9 23358.6,4925.41C23376,4916.93 23386.2,4899.88 23386.3,4879.3C23386.5,4821.8 23386.7,4748.25 23386.9,4684.42C23387.2,4589.65 23312.6,4492.39 23213,4457.62C23101.1,4418.77 22965.2,4392.83 22824.7,4392.83C22490.3,4392.83 22182.7,4592.22 22182.7,4908.79C22182.7,5211.01 22428.3,5318.41 22700.5,5390.86C22793.6,5415.7 22964.3,5455.03 22964.3,5568.88C22964.3,5678.59 22855.4,5682.62 22753.7,5689.96C22611.1,5700.24 22459.3,5648.3 22275.6,5538.65C22254.6,5526.2 22231,5523.4 22212.4,5531.18C22193.8,5538.96 22182.7,5556.32 22182.7,5577.58C22182.7,5636.29 22182.7,5712.05 22182.7,5777.01C22182.7,5869.72 22254.4,5964.95 22351.5,6001.04C22481.9,6049.71 22624.5,6069.47 22769.2,6069.47C22937.7,6069.47 23112.6,6026.05 23243.1,5922.65C23375.9,5817.19 23415.8,5657.89 23415.8,5502.64C23415.8,5250.1 23236.5,5140.39 23004.1,5076.22L22893.4,5045.17C22818,5022.4 22635.9,4985.4 22635.9,4894.32C22635.9,4807.38 22802.1,4804.46 22881.8,4807.53C23026.1,4813.08 23195.4,4872.48 23297.7,4922.55ZM26007.6,4759.31L26007.6,4392.83L25446.4,4392.83C25446.4,4392.83 25052.3,4354.15 25052.3,4717.85L25049.1,6066.53L25482.9,6066.53L25482.9,5453.97L25893,5453.97L25893,5110.7L25482.9,5110.7L25482.9,4759.31L26007.6,4759.31Z" style="fill:rgb(10,42,118);"/>
                </g>
            </g>
        </g>
    </g>
</svg>
