
<?xml version="1.0" encoding="UTF-8"?>
<svg  width="100%" height="100%" version="1.1" viewBox="0 0 1200 1200" xmlns="http://www.w3.org/2000/svg">
    <g fill="#002d72">
        <path d="m834.38 890.62h-37.5c-5.1836 0-9.375-4.1914-9.375-9.375s4.1914-9.375 9.375-9.375h37.5c5.1758 0 9.375-4.1992 9.375-9.375v-534.38c0-5.1641-4.1992-9.375-9.375-9.375h-468.75c-5.1641 0-9.375 4.2109-9.375 9.375v534.38c0 5.1758 4.2109 9.375 9.375 9.375h281.25c5.1836 0 9.375 4.1914 9.375 9.375s-4.1914 9.375-9.375 9.375h-281.25c-15.508 0-28.125-12.617-28.125-28.125v-534.38c0-15.508 12.617-28.125 28.125-28.125h468.75c15.508 0 28.125 12.617 28.125 28.125v534.38c0 15.508-12.617 28.125-28.125 28.125z"/>
        <path d="m787.5 515.62h-375c-5.1758 0-9.375-4.1992-9.375-9.375v-121.88c0-5.1758 4.1992-9.375 9.375-9.375h375c5.1836 0 9.375 4.1992 9.375 9.375v121.88c0 5.1758-4.1914 9.375-9.375 9.375zm-365.62-18.75h356.25v-103.12h-356.25z"/>
        <path d="m778.12 571.88h-365.62c-5.1758 0-9.375-4.1992-9.375-9.375s4.1992-9.375 9.375-9.375h365.62c5.1836 0 9.375 4.1992 9.375 9.375s-4.1914 9.375-9.375 9.375z"/>
        <path d="m778.12 618.75h-365.62c-5.1758 0-9.375-4.1914-9.375-9.375 0-5.1758 4.1992-9.375 9.375-9.375h365.62c5.1836 0 9.375 4.1992 9.375 9.375 0 5.1836-4.1914 9.375-9.375 9.375z"/>
        <path d="m600 665.62h-187.5c-5.1758 0-9.375-4.1914-9.375-9.375s4.1992-9.375 9.375-9.375h187.5c5.1758 0 9.375 4.1914 9.375 9.375s-4.1992 9.375-9.375 9.375z"/>
        <path d="m721.88 796.88c-25.848 0-46.875-21.027-46.875-46.875s21.027-46.875 46.875-46.875 46.875 21.027 46.875 46.875-21.027 46.875-46.875 46.875zm0-75c-15.508 0-28.125 12.617-28.125 28.125s12.617 28.125 28.125 28.125 28.125-12.617 28.125-28.125-12.617-28.125-28.125-28.125z"/>
        <path d="m694.55 942.54c-3.3203 0-6.4297-1.7617-8.1172-4.6875l-15.195-26.336-26.324 15.207c-3.2891 1.9023-7.3867 1.6406-10.387-0.68359-3.0078-2.3047-4.332-6.1953-3.3477-9.8633l30.562-114.09c1.1445-4.2852 5.1289-7.2109 9.5547-6.9375 4.4258 0.23438 8.0703 3.5352 8.7734 7.9141l2.3984 15.215 17.184-6.582c3.7773-1.4453 8.082-0.30859 10.633 2.8516l16.359 20.176c1.8945 2.3359 2.5508 5.4297 1.7734 8.3359l-24.797 92.531c-0.97656 3.6641-4.0781 6.375-7.8281 6.8633-0.42578 0.054687-0.83594 0.082031-1.2422 0.082031zm-19.883-53.203c0.81641 0 1.6328 0.11328 2.4297 0.32031 2.3984 0.63672 4.4531 2.2109 5.6914 4.3672l8.5703 14.852 17.699-66.055-9.0664-11.176-21.656 8.2969c-2.3516 0.9375-4.9766 0.81641-7.2656-0.23437l-15.93 59.477 14.84-8.5781c1.4336-0.83594 3.0547-1.2695 4.6875-1.2695z"/>
        <path d="m749.2 942.54c-0.40234 0-0.81641-0.027344-1.2266-0.085938-3.75-0.49609-6.8438-3.207-7.8281-6.8633l-24.797-92.531c-0.77734-2.9062-0.12109-6 1.7734-8.3359l16.359-20.176c2.5508-3.1602 6.8711-4.293 10.633-2.8516l17.184 6.582 2.3984-15.215c0.69531-4.3789 4.3516-7.668 8.7734-7.9141 4.3984-0.26172 8.3984 2.6523 9.5547 6.9375l30.102 112.34c0.61719 1.2578 0.97656 2.7461 0.97656 4.2266 0 5.1836-4.1914 9.4492-9.375 9.4492h-0.1875c-1.6133 0-3.2344-0.47656-4.6875-1.3203l-26.336-15.234-15.195 26.305c-1.6914 2.9531-4.793 4.6875-8.1211 4.6875zm-14.504-99.723 17.699 66.055 8.5703-14.84c2.5859-4.4922 8.3359-6.0273 12.805-3.4297l14.852 8.5703-15.938-59.477c-2.2695 1.0508-4.8945 1.1719-7.2656 0.23438l-21.656-8.2969z"/>
        <path d="m721.88 853.12c-2.832 0-5.5039-1.2734-7.2734-3.4688l-14.605-18.008-21.656 8.2969c-2.625 1.0234-5.5977 0.78906-8.043-0.63672-2.4453-1.4062-4.1172-3.8516-4.5664-6.6562l-3.6094-22.883-22.883-3.6094c-2.8047-0.44922-5.25-2.1289-6.6562-4.5664-1.4141-2.457-1.6602-5.4102-0.63672-8.043l8.2969-21.656-18.008-14.605c-2.2109-1.7852-3.4844-4.457-3.4844-7.2891s1.2734-5.5039 3.4688-7.2734l18.008-14.605-8.2969-21.656c-1.0117-2.6328-0.77734-5.5977 0.63672-8.043 1.4062-2.4453 3.8516-4.1172 6.6562-4.5664l22.883-3.6094 3.6094-22.883c0.44922-2.8047 2.1289-5.25 4.5664-6.6562 2.457-1.4258 5.418-1.668 8.043-0.63672l21.656 8.2969 14.605-18.008c3.5547-4.3984 11.008-4.3984 14.559 0l14.605 18.008 21.656-8.2969c2.6328-1.0234 5.5859-0.78906 8.043 0.63672 2.4453 1.4062 4.1172 3.8516 4.5664 6.6562l3.6094 22.883 22.883 3.6094c2.8047 0.44922 5.25 2.1289 6.6562 4.5664 1.4141 2.457 1.6602 5.4102 0.63672 8.043l-8.2969 21.656 18.008 14.605c2.2148 1.7695 3.4883 4.4414 3.4883 7.2734s-1.2734 5.5039-3.4688 7.2734l-18.008 14.605 8.2969 21.656c1.0117 2.6328 0.77734 5.5977-0.63672 8.043-1.4062 2.4453-3.8516 4.1172-6.6562 4.5664l-22.883 3.6094-3.6094 22.883c-0.44922 2.8047-2.1289 5.25-4.5664 6.6562-2.4648 1.4258-5.4102 1.668-8.043 0.63672l-21.656-8.2969-14.605 18.008c-1.7852 2.2109-4.457 3.4844-7.2891 3.4844zm-18.891-42.039c2.7656 0 5.4648 1.2266 7.2734 3.4688l11.617 14.309 11.605-14.305c2.5508-3.1602 6.8711-4.293 10.633-2.8516l17.184 6.582 2.8672-18.188c0.63672-4.0234 3.7891-7.1719 7.8086-7.8086l18.188-2.8672-6.582-17.184c-1.4531-3.7773-0.30078-8.0703 2.8516-10.633l14.309-11.609-14.305-11.605c-3.1484-2.5508-4.3047-6.8438-2.8516-10.633l6.582-17.184-18.188-2.8672c-4.0234-0.63672-7.1719-3.7891-7.8086-7.8086l-2.8672-18.188-17.184 6.582c-3.75 1.4531-8.0703 0.30859-10.633-2.8516l-11.609-14.309-11.605 14.305c-2.5391 3.1602-6.8438 4.3047-10.633 2.8516l-17.184-6.582-2.8672 18.188c-0.63672 4.0234-3.7891 7.1719-7.8086 7.8086l-18.188 2.8672 6.582 17.184c1.4531 3.7773 0.30078 8.0703-2.8516 10.633l-14.309 11.609 14.305 11.605c3.1484 2.5508 4.3047 6.8438 2.8516 10.633l-6.582 17.184 18.188 2.8672c4.0234 0.63672 7.1719 3.7891 7.8086 7.8086l2.8672 18.188 17.184-6.582c1.0938-0.41797 2.2266-0.61719 3.3516-0.61719z"/>
    </g>
</svg>
