<?xml version="1.0" encoding="UTF-8"?>
<svg width="100%" height="100%" version="1.1" viewBox="0 0 1200 1200" xmlns="http://www.w3.org/2000/svg">
    <g fill="#002d72">
        <path d="m809.3 0h-574.13c-38.027 0-77.246 23.562-77.246 63.078v975.57c1.2383 20.066 9.7812 38.988 24.012 53.191 14.23 14.203 33.164 22.703 53.234 23.906h336.72v-28.035h-336.72c-12.605-1.2422-24.391-6.8086-33.359-15.75-8.9688-8.9414-14.57-20.711-15.852-33.312v-975.57c0-21.922 25.055-35.043 49.211-35.043h563.09l5.8164 5.8164v144.95h-0.003906c0 15.82 6.2852 30.992 17.473 42.176 11.188 11.188 26.359 17.473 42.18 17.473h144.95l5.8164 5.8164-0.003907 794.38c0 24.156-13.121 49.062-35.043 49.062h-70.684v28.035h70.238c39.52 0 63.078-39.219 63.078-77.098v-805.27z"/>
        <path d="m335.98 193.86c36.832 0 66.062-14.914 66.062-54.578 0-39.668-34.148-51.746-71.43-51.746h-43.547v171.34h34v-65.02zm-14.914-79.332h12.078c17.746 0 32.66 6.8594 32.66 26.691s-14.914 25.5-32.656 25.5h-12.082z"/>
        <path d="m572.49 173.28c0-68-46.379-85.746-99.02-85.746h-46.824v171.34h46.824c52.641 0 99.02-17.598 99.02-85.598zm-92.309 58.605h-19.238v-117.36h19.238c15.398-0.10156 30.16 6.1406 40.824 17.25 10.66 11.113 16.281 26.121 15.543 41.504 0.69531 15.359-4.9453 30.328-15.602 41.406s-25.395 17.297-40.766 17.199z"/>
        <path d="m603.95 258.88h34.445v-75.16h57.859v-26.988h-57.859v-42.203h60.844v-26.992h-95.289z"/>
        <path d="m649.14 456.17h287.66v189.54h-287.66z"/>
        <path d="m284.23 456.17h287.66v42.055h-287.66z"/>
        <path d="m284.23 561.45h287.66v42.055h-287.66z"/>
        <path d="m284.23 659.72h287.66v42.055h-287.66z"/>
        <path d="m284.23 764.86h287.66v42.055h-287.66z"/>
        <path d="m284.23 863.13h287.66v42.055h-287.66z"/>
        <path d="m915.77 989.44h-105.13v-224.58h-161.5v224.58h-84.254l168.51 210.56z"/>
    </g>
</svg>
