<?xml version="1.0" encoding="UTF-8"?>
<svg  width="100%" height="100%" version="1.1" viewBox="0 0 1200 1200" xmlns="http://www.w3.org/2000/svg">
    <path d="m815.25 263.62c-4.7109 0.17969-8.8789 3.1016-10.656 7.4648-1.7773 4.3633-0.83594 9.3672 2.4062 12.785l270.38 304.12h-981.38c-0.74609-0.12109-1.5039-0.12109-2.25 0-6.2812 0.58984-11.465 6.8438-10.875 13.125s6.8438 11.465 13.125 10.875h981.38l-270.38 303.75c-4.4531 4.9688-4.0312 12.609 0.9375 17.062s12.609 4.0312 17.062-0.9375l288-324c4.1484-4.5742 4.1484-11.551 0-16.125l-288-324c-2.4336-2.8125-6.0352-4.3359-9.75-4.125z" fill="#002d72"/>
</svg>
